# xmcd CD database file
#
# Track frame offsets:
#	150
#	12817
#	30450
#	52817
#	64412
#	77962
#	94050
#	121995
#	133032
#	143025
#	175912
#	187200
#
# Disc length: 2660 seconds
#
# Revision: 0
# Processed by: cddbd v1.5.1PL0 Copyright (c) Steve Scherf et al.
# Submitted via: CDex 1.51
#
DISCID=a20a620c
DTITLE=Paul Michael Meredith - A Tender Harp Lullaby
DYEAR=1997
DGENRE=New Age
TTITLE0=Somewhere Over The Rainbow
TTITLE1=Tender Shepard
TTITLE2=Gentle Night
TTITLE3=All I Have To Do IS Dream
TTITLE4=Our Father
TTITLE5=Pachelbel's Lullaby
TTITLE6=Child's Play Medley
TTITLE7=Edelweiss
TTITLE8=When You Wish Upon A Star
TTITLE9=Storytime Medley
TTITLE10=Brahm's Lullaby
TTITLE11=Twinkle Twinkle Little Star
EXTD=YEAR: 1997
EXTT0=
EXTT1=
EXTT2=
EXTT3=
EXTT4=
EXTT5=
EXTT6=
EXTT7=
EXTT8=
EXTT9=
EXTT10=
EXTT11=
PLAYORDER=
